<svg width="40" height="40" viewBox="0 0 40 40" fill="none" xmlns="http://www.w3.org/2000/svg">
<path d="M35.5833 27.6458C34.5133 28.6238 33.1163 29.1662 31.6667 29.1667H30" stroke="#3C464B" stroke-width="2" stroke-miterlimit="10" stroke-linecap="square"/>
<path d="M35.5267 18.9675C34.786 19.8155 33.8724 20.4951 32.8473 20.9607C31.8222 21.4262 30.7093 21.667 29.5834 21.6667H29.1667" stroke="#3C464B" stroke-width="2" stroke-miterlimit="10" stroke-linecap="square"/>
<path d="M4.41669 27.6458C5.48672 28.6238 6.88376 29.1662 8.33335 29.1667H10" stroke="#3C464B" stroke-width="2" stroke-miterlimit="10" stroke-linecap="square"/>
<path d="M4.47333 18.9675C5.21398 19.8155 6.12757 20.4951 7.15271 20.9607C8.17784 21.4262 9.29076 21.667 10.4167 21.6667H10.8333" stroke="#3C464B" stroke-width="2" stroke-miterlimit="10" stroke-linecap="square"/>
<path d="M20 29.5833C19.9949 30.7085 20.2297 31.8217 20.6887 32.849C21.1477 33.8762 21.8204 34.7938 22.6619 35.5406C23.5035 36.2874 24.4945 36.8463 25.569 37.1799C26.6436 37.5135 27.7768 37.6143 28.8934 37.4755C30.0099 37.3367 31.084 36.9614 32.0441 36.3748C33.0042 35.7882 33.8283 35.0037 34.4613 34.0736C35.0944 33.1434 35.5219 32.089 35.7153 30.9807C35.9088 29.8723 35.8638 28.7354 35.5834 27.6458C36.1911 27.0962 36.6759 26.4244 37.0059 25.6744C37.3359 24.9243 37.5036 24.113 37.4981 23.2936C37.4926 22.4742 37.314 21.6652 36.9739 20.9197C36.6339 20.1741 36.1401 19.5089 35.525 18.9675C36.531 17.8254 37.1861 16.4171 37.4115 14.9119C37.6369 13.4067 37.4231 11.8683 36.7958 10.4816C36.1684 9.09487 35.1542 7.91865 33.8749 7.09413C32.5955 6.26961 31.1054 5.83183 29.5834 5.83334C29.3859 5.83334 29.1917 5.84833 29 5.86333C28.7039 4.79552 28.031 3.87113 27.1058 3.26128C26.1806 2.65143 25.0658 2.39743 23.9677 2.54628C22.8696 2.69513 21.8627 3.23675 21.1332 4.0709C20.4037 4.90504 20.0012 5.97522 20 7.08333V8.75C20 9.35189 20.1186 9.94789 20.3489 10.504C20.5792 11.06 20.9168 11.5653 21.3424 11.9909C21.768 12.4165 22.2733 12.7541 22.8294 12.9844C23.3855 13.2148 23.9815 13.3333 24.5834 13.3333H25.8334" stroke="#3C464B" stroke-width="2" stroke-miterlimit="10" stroke-linecap="square"/>
<path d="M20 29.5833C20.0051 30.7085 19.7703 31.8217 19.3113 32.849C18.8523 33.8762 18.1797 34.7938 17.3381 35.5406C16.4966 36.2874 15.5055 36.8463 14.431 37.1799C13.3565 37.5135 12.2232 37.6143 11.1067 37.4755C9.99012 37.3367 8.91601 36.9614 7.95591 36.3748C6.9958 35.7882 6.17177 35.0037 5.53872 34.0736C4.90568 33.1434 4.47817 32.089 4.28469 30.9807C4.09121 29.8723 4.1362 28.7354 4.41667 27.6458C3.80888 27.0962 3.32411 26.4244 2.99413 25.6744C2.66416 24.9243 2.49642 24.113 2.50193 23.2936C2.50744 22.4742 2.68606 21.6652 3.02609 20.9197C3.36613 20.1741 3.85988 19.5089 4.47501 18.9675C3.46898 17.8254 2.81395 16.4171 2.58854 14.9119C2.36314 13.4067 2.57693 11.8683 3.20427 10.4816C3.8316 9.09487 4.84581 7.91865 6.12517 7.09413C7.40452 6.26961 8.89464 5.83183 10.4167 5.83334C10.6142 5.83334 10.8083 5.84833 11 5.86333C11.2961 4.79552 11.969 3.87113 12.8943 3.26128C13.8195 2.65143 14.9343 2.39743 16.0323 2.54628C17.1304 2.69513 18.1374 3.23675 18.8668 4.0709C19.5963 4.90504 19.9989 5.97522 20 7.08333V8.75C20 9.96558 19.5171 11.1314 18.6576 11.9909C17.798 12.8505 16.6322 13.3333 15.4167 13.3333H14.1667" stroke="#3C464B" stroke-width="2" stroke-miterlimit="10" stroke-linecap="square"/>
<path d="M11.6667 15.8333C13.0474 15.8333 14.1667 14.714 14.1667 13.3333C14.1667 11.9526 13.0474 10.8333 11.6667 10.8333C10.286 10.8333 9.16669 11.9526 9.16669 13.3333C9.16669 14.714 10.286 15.8333 11.6667 15.8333Z" stroke="#3C464B" stroke-width="2" stroke-miterlimit="10" stroke-linecap="square"/>
<path d="M12.5 31.6667C13.8807 31.6667 15 30.5474 15 29.1667C15 27.786 13.8807 26.6667 12.5 26.6667C11.1193 26.6667 10 27.786 10 29.1667C10 30.5474 11.1193 31.6667 12.5 31.6667Z" stroke="#3C464B" stroke-width="2" stroke-miterlimit="10" stroke-linecap="square"/>
<path d="M28.3333 15.8333C29.7141 15.8333 30.8333 14.714 30.8333 13.3333C30.8333 11.9526 29.7141 10.8333 28.3333 10.8333C26.9526 10.8333 25.8333 11.9526 25.8333 13.3333C25.8333 14.714 26.9526 15.8333 28.3333 15.8333Z" stroke="#3C464B" stroke-width="2" stroke-miterlimit="10" stroke-linecap="square"/>
<path d="M27.5 31.6667C28.8807 31.6667 30 30.5474 30 29.1667C30 27.786 28.8807 26.6667 27.5 26.6667C26.1193 26.6667 25 27.786 25 29.1667C25 30.5474 26.1193 31.6667 27.5 31.6667Z" stroke="#3C464B" stroke-width="2" stroke-miterlimit="10" stroke-linecap="square"/>
<path d="M20 29.5458V23.3333" stroke="#3C464B" stroke-width="2" stroke-miterlimit="10" stroke-linecap="square"/>
<path d="M20 23.3333C21.3807 23.3333 22.5 22.214 22.5 20.8333C22.5 19.4526 21.3807 18.3333 20 18.3333C18.6193 18.3333 17.5 19.4526 17.5 20.8333C17.5 22.214 18.6193 23.3333 20 23.3333Z" stroke="#3C464B" stroke-width="2" stroke-miterlimit="10" stroke-linecap="square"/>
</svg>
