<svg width="40" height="40" viewBox="0 0 40 40" fill="none" xmlns="http://www.w3.org/2000/svg">
<path d="M34.2567 20.6483L20 35.4633L5.74333 20.6483C4.87239 19.7302 4.21036 18.6346 3.80266 17.4366C3.39496 16.2385 3.25123 14.9665 3.38133 13.7077C3.51144 12.4489 3.9123 11.2332 4.55641 10.1439C5.20052 9.05458 6.07265 8.11749 7.11295 7.39692C8.15326 6.67634 9.33713 6.18932 10.5833 5.96928C11.8296 5.74923 13.1086 5.80137 14.3328 6.1221C15.557 6.44283 16.6973 7.02458 17.6755 7.82743C18.6537 8.63028 19.4467 9.63523 20 10.7733C20.5533 9.63523 21.3463 8.63028 22.3245 7.82743C23.3027 7.02458 24.443 6.44283 25.6672 6.1221C26.8914 5.80137 28.1704 5.74923 29.4166 5.96928C30.6629 6.18932 31.8467 6.67634 32.887 7.39692C33.9273 8.11749 34.7995 9.05458 35.4436 10.1439C36.0877 11.2332 36.4885 12.4489 36.6187 13.7077C36.7488 14.9665 36.605 16.2385 36.1973 17.4366C35.7896 18.6346 35.1276 19.7302 34.2567 20.6483Z" stroke="#3C464B" stroke-width="2" stroke-miterlimit="10" stroke-linecap="square"/>
</svg>
