<svg width="40" height="40" viewBox="0 0 40 40" fill="none" xmlns="http://www.w3.org/2000/svg">
<path d="M12.5 17.6283V38.3333" stroke="#3C464B" stroke-width="2" stroke-miterlimit="10"/>
<path d="M27.5 17.6283V38.3333" stroke="#3C464B" stroke-width="2" stroke-miterlimit="10"/>
<path d="M30.8333 31.6667L34.3517 25.3333C34.5356 25.002 34.6012 24.6179 34.5376 24.2444C34.474 23.8708 34.2849 23.53 34.0017 23.2783L27.9733 17.92C27.6683 17.6493 27.2745 17.4999 26.8667 17.5H13.1333C12.7259 17.499 12.3322 17.6472 12.0267 17.9167L5.99999 23.2792C5.71672 23.5309 5.52769 23.8716 5.46406 24.2452C5.40044 24.6188 5.46602 25.0029 5.64999 25.3342L9.16666 31.6667" stroke="#3C464B" stroke-width="2" stroke-miterlimit="10" stroke-linecap="square"/>
<path d="M20 13.3333C23.2217 13.3333 25.8333 10.7217 25.8333 7.5C25.8333 4.27834 23.2217 1.66666 20 1.66666C16.7783 1.66666 14.1667 4.27834 14.1667 7.5C14.1667 10.7217 16.7783 13.3333 20 13.3333Z" stroke="#3C464B" stroke-width="2" stroke-miterlimit="10" stroke-linecap="square"/>
<path d="M20 22.5H23.3333" stroke="#3C464B" stroke-width="2" stroke-miterlimit="10" stroke-linecap="square"/>
</svg>
