<svg width="218" height="32" viewBox="0 0 218 32" fill="none" xmlns="http://www.w3.org/2000/svg">
<g clip-path="url(#clip0_97_650)">
<path d="M20.9725 24.16C20.6686 25.1904 20.4575 26.2784 20.4575 27.0976C20.4575 30.1248 22.786 32 27.5998 32C33.984 32 36.4052 29.6704 37.8573 24.7328L42.0346 10.5056H36.1014L31.9273 24.6112C31.4731 26.1856 30.5648 26.8512 28.6905 26.8512C26.9665 26.8512 26.3619 26.0032 26.7841 24.5792L30.9294 10.5024H24.9994L20.9757 24.1568L20.9725 24.16Z" fill="#010101"/>
<path d="M100.89 31.696H114.871L116.384 26.704H108.275L109.213 23.4912H116.323L117.775 18.6208H110.665L111.631 15.3504H119.742L121.165 10.5056H107.153L100.89 31.696Z" fill="#010101"/>
<path d="M192.55 10.2016C186.77 10.2016 182.474 10.8672 179.628 21.5552C179.145 23.3728 178.841 25.008 178.841 26.432C178.841 29.8528 180.658 32 186.498 32C187.982 32 189.888 31.7888 191.219 31.3344L192.671 26.4288C192.671 26.4288 191.126 26.8224 188.676 26.8224C185.983 26.8224 185.257 25.9744 185.257 24.6112C185.257 23.7952 185.5 22.8256 185.772 21.7344C187.224 16.0736 188.83 15.4368 191.763 15.4368C194.213 15.4368 195.636 15.8304 195.636 15.8304L197.149 10.7744C196.301 10.5024 194.03 10.1984 192.546 10.1984" fill="#010101"/>
<path d="M0.969263 31.5456C1.78488 31.7568 3.90548 32 5.5687 32C13.1331 32 16.1589 29.9424 17.8829 24.16L21.9386 10.5056H16.0054L12.4359 22.6752C12.3143 23.0688 12.1032 23.856 11.7706 24.4608C10.8014 26.2176 8.86635 26.7008 6.6274 26.7008C4.38846 26.7008 2.51094 26.4288 2.51094 26.4288L0.966064 31.5456H0.969263Z" fill="#010101"/>
<path d="M148.337 31.6992H154.206L156.295 24.5856H157.9L159.656 31.6992H166.012L163.651 23.6448C165.436 23.1296 167.464 22.496 168.855 17.7696C169.22 16.5312 169.37 15.2288 169.37 14.5632C169.37 11.9904 167.857 10.5056 164.076 10.5056H154.603L148.34 31.6992H148.337ZM157.596 20.1344L158.988 15.3504H161.652C162.682 15.3504 163.197 15.8656 163.197 16.7136C163.197 18.6816 162.228 20.1344 160.2 20.1344H157.6H157.596Z" fill="#010101"/>
<path d="M79.8568 19.4976H71.9277L70.7187 23.4016H73.2327L72.2316 26.7616C72.2316 26.7616 71.3872 26.912 70.4149 26.912C68.2655 26.912 67.9328 25.9744 67.9328 24.6112C67.9328 23.792 68.1439 22.7936 68.4158 21.7024C69.8679 16.0416 71.5631 15.3152 74.4993 15.3152C77.4356 15.3152 79.9784 15.92 79.9784 15.92L81.52 10.9856C80.6756 10.7136 77.9505 10.1984 75.2862 10.1984C69.5065 10.1984 65.1789 10.8352 62.3355 21.52C61.8493 23.3376 61.6382 24.9408 61.6382 26.3648C61.6382 29.7856 63.634 31.9968 69.3849 31.9968C72.1708 31.9968 75.1039 31.5424 76.4376 31.088L79.8568 19.4912V19.4976Z" fill="#010101"/>
<path d="M124.281 10.5056H130.211L123.948 31.696H118.018L124.281 10.5056Z" fill="#010101"/>
<path d="M45.4219 10.5056H50.3827L53.4725 21.7984H53.562C53.562 21.7984 54.045 19.952 54.4992 18.3744L56.8309 10.5056H62.6714L56.4087 31.696H51.4446L48.2973 20.5568H48.2078C48.2078 20.5568 47.7824 22.2816 47.2674 24.0384L44.9965 31.696H39.156L45.4187 10.5056H45.4219Z" fill="#010101"/>
<path d="M133.723 10.5056H138.687L141.773 21.7984H141.863C141.863 21.7984 142.349 19.952 142.8 18.3744L145.129 10.5056H150.969L144.706 31.696H139.742L136.595 20.5568H136.505C136.505 20.5568 136.08 22.2816 135.565 24.0384L133.294 31.696H127.454L133.716 10.5056H133.723Z" fill="#010101"/>
<path d="M174.03 10.5056H179.96L173.698 31.696H167.768L174.03 10.5056Z" fill="#010101"/>
<path d="M85.79 10.5056H91.72L89.27 18.7392H95.0785L97.5317 10.5056H103.462L97.1991 31.696H91.2659L93.6551 23.6128H87.8467L85.4574 31.696H79.5242L85.79 10.5056Z" fill="#010101"/>
<path d="M200.325 10.5056H206.258L203.808 18.7392H209.617L212.067 10.5056H218L211.734 31.696H205.804L208.193 23.6128H202.385L199.993 31.696H194.062L200.325 10.5056Z" fill="#010101"/>
<path d="M22.7861 8.688L13.7375 0L0 8.688H7.77555L3.08655 24.4928C3.08655 24.4928 4.66021 24.7328 6.8096 24.7328C8.5048 24.7328 9.47075 24.2176 9.92814 23.4304C10.168 23.008 10.2608 22.7936 10.4719 22.0672L14.4988 8.6848H22.7893L22.7861 8.688Z" fill="#E21F26"/>
</g>
<defs>
<clipPath id="clip0_97_650">
<rect width="218" height="32" fill="white"/>
</clipPath>
</defs>
</svg>
