<svg width="1440" height="216" viewBox="0 0 1440 216" fill="none" xmlns="http://www.w3.org/2000/svg">
<g clip-path="url(#clip0_97_477)">
<path d="M125.565 163.08C123.514 170.035 122.089 177.379 122.089 182.909C122.089 203.342 137.806 216 170.299 216C213.392 216 229.736 200.275 239.538 166.946L267.734 70.9128H227.685L199.51 166.126C196.444 176.753 190.313 181.246 177.661 181.246C166.024 181.246 161.944 175.522 164.793 165.91L192.774 70.8912H152.746L125.586 163.058L125.565 163.08Z" fill="#3C464B"/>
<path d="M665.009 213.948H759.378L769.59 180.252H714.86L721.186 158.566H769.18L778.982 125.69H730.987L737.508 103.615H792.259L801.867 70.9128H707.282L665.009 213.948Z" fill="#3C464B"/>
<path d="M1283.71 68.8608C1244.7 68.8608 1215.7 73.3536 1196.49 145.498C1193.23 157.766 1191.18 168.804 1191.18 178.416C1191.18 201.506 1203.44 216 1242.86 216C1252.88 216 1265.75 214.574 1274.73 211.507L1284.53 178.394C1284.53 178.394 1274.1 181.051 1257.56 181.051C1239.39 181.051 1234.48 175.327 1234.48 166.126C1234.48 160.618 1236.13 154.073 1237.96 146.707C1247.76 108.497 1258.6 104.198 1278.4 104.198C1294.94 104.198 1304.54 106.855 1304.54 106.855L1314.76 72.7272C1309.03 70.8912 1293.71 68.8392 1283.69 68.8392" fill="#3C464B"/>
<path d="M-9.45827 212.933C-3.95285 214.358 10.3612 216 21.5879 216C72.648 216 93.072 202.111 104.709 163.08L132.085 70.9128H92.0357L67.9414 153.058C67.121 155.714 65.696 161.028 63.4507 165.11C56.909 176.969 43.8471 180.23 28.7342 180.23C13.6213 180.23 0.948044 178.394 0.948044 178.394L-9.47986 212.933H-9.45827Z" fill="#3C464B"/>
<path d="M985.273 213.97H1024.89L1038.99 165.953H1049.83L1061.68 213.97H1104.58L1088.65 159.602C1100.69 156.125 1114.38 151.848 1123.77 119.945C1126.23 111.586 1127.25 102.794 1127.25 98.3016C1127.25 80.9352 1117.04 70.9128 1091.52 70.9128H1027.57L985.294 213.97H985.273ZM1047.78 135.907L1057.17 103.615H1075.15C1082.1 103.615 1085.58 107.093 1085.58 112.817C1085.58 126.101 1079.04 135.907 1065.35 135.907H1047.8H1047.78Z" fill="#3C464B"/>
<path d="M523.034 131.609H469.513L461.352 157.961H478.321L471.564 180.641C471.564 180.641 465.864 181.656 459.301 181.656C444.792 181.656 442.547 175.327 442.547 166.126C442.547 160.596 443.972 153.857 445.807 146.491C455.609 108.281 467.051 103.378 486.871 103.378C506.69 103.378 523.854 107.46 523.854 107.46L534.261 74.1528C528.561 72.3168 510.166 68.8392 492.182 68.8392C453.169 68.8392 423.958 73.1376 404.765 145.26C401.483 157.529 400.058 168.35 400.058 177.962C400.058 201.053 413.53 215.978 452.349 215.978C471.154 215.978 490.951 212.911 499.954 209.844L523.034 131.566V131.609Z" fill="#3C464B"/>
<path d="M822.896 70.9128H862.923L820.65 213.948H780.623L822.896 70.9128Z" fill="#3C464B"/>
<path d="M290.598 70.9128H324.083L344.939 147.139H345.544C345.544 147.139 348.804 134.676 351.87 124.027L367.609 70.9128H407.032L364.759 213.948H331.251L310.007 138.758H309.402C309.402 138.758 306.531 150.401 303.055 162.259L287.726 213.948H248.303L290.576 70.9128H290.598Z" fill="#3C464B"/>
<path d="M886.629 70.9128H920.136L940.971 147.139H941.575C941.575 147.139 944.857 134.676 947.901 124.027L963.618 70.9128H1003.04L960.768 213.948H927.261L906.017 138.758H905.412C905.412 138.758 902.541 150.401 899.065 162.259L883.736 213.948H844.313L886.586 70.9128H886.629Z" fill="#3C464B"/>
<path d="M1158.7 70.9128H1198.73L1156.46 213.948H1116.43L1158.7 70.9128Z" fill="#3C464B"/>
<path d="M563.083 70.9128H603.111L586.573 126.49H625.78L642.34 70.9128H682.367L640.094 213.948H600.045L616.173 159.386H576.965L560.838 213.948H520.789L563.083 70.9128Z" fill="#3C464B"/>
<path d="M1336.19 70.9128H1376.24L1359.71 126.49H1398.91L1415.45 70.9128H1455.5L1413.21 213.948H1373.18L1389.31 159.386H1350.1L1333.95 213.948H1293.92L1336.19 70.9128Z" fill="#3C464B"/>
<path d="M137.806 58.644L76.7284 0L-16 58.644H36.4849L4.83421 165.326C4.83421 165.326 15.4564 166.946 29.9648 166.946C41.4074 166.946 47.9276 163.469 51.0149 158.155C52.6342 155.304 53.2603 153.857 54.6852 148.954L81.8668 58.6224H137.828L137.806 58.644Z" fill="#3C464B"/>
</g>
<defs>
<clipPath id="clip0_97_477">
<rect width="1471.5" height="216" fill="white" transform="translate(-16)"/>
</clipPath>
</defs>
</svg>
